<svg width="28" height="28" viewBox="0 0 28 28" fill="none" xmlns="http://www.w3.org/2000/svg">
<rect width="28" height="28" rx="4" fill="#5F63C6"/>
<path d="M14 4C8.48603 4 4 8.48604 4 14C4 19.514 8.48603 24 14 24C19.514 24 24 19.514 24 14C24 8.48604 19.514 4 14 4ZM14 5.5C18.7033 5.5 22.5 9.2967 22.5 14C22.5 18.7033 18.7033 22.5 14 22.5C9.29669 22.5 5.5 18.7033 5.5 14C5.5 9.2967 9.29669 5.5 14 5.5ZM13.2383 7.98926C13.0395 7.99236 12.8502 8.07423 12.7117 8.21686C12.5733 8.3595 12.4971 8.55125 12.5 8.75V14.25C12.5 14.4489 12.5791 14.6396 12.7197 14.7803L15.2197 17.2803C15.2888 17.3523 15.3716 17.4097 15.4632 17.4493C15.5548 17.4889 15.6534 17.5098 15.7532 17.5108C15.8529 17.5118 15.9519 17.4929 16.0443 17.4552C16.1367 17.4175 16.2206 17.3617 16.2912 17.2912C16.3617 17.2206 16.4175 17.1367 16.4552 17.0443C16.4929 16.9519 16.5118 16.8529 16.5108 16.7532C16.5098 16.6534 16.4889 16.5548 16.4493 16.4632C16.4097 16.3716 16.3523 16.2888 16.2803 16.2197L14 13.9395V8.75C14.0014 8.64962 13.9827 8.54997 13.9449 8.45695C13.9071 8.36394 13.8511 8.27946 13.78 8.20852C13.709 8.13757 13.6245 8.08161 13.5314 8.04395C13.4383 8.00629 13.3387 7.98769 13.2383 7.98926V7.98926Z" fill="white"/>
</svg>
