<svg width="11" height="11" viewBox="0 0 11 11" fill="none" xmlns="http://www.w3.org/2000/svg">
<path d="M10.3387 10.9998C10.168 10.9958 10.0059 10.9244 9.88771 10.8011L5.49985 6.41326L1.112 10.8011C1.05173 10.8631 0.979642 10.9123 0.900003 10.9459C0.820364 10.9795 0.734794 10.9967 0.648361 10.9967C0.519916 10.9965 0.394434 10.9581 0.287945 10.8862C0.181455 10.8144 0.0987935 10.7125 0.0505186 10.5935C0.00224376 10.4744 -0.00945237 10.3437 0.0169243 10.218C0.043301 10.0923 0.106553 9.9773 0.1986 9.88772L4.58645 5.49986L0.1986 1.112C0.136607 1.05248 0.0871129 0.981193 0.0530167 0.902305C0.0189206 0.823417 0.000907886 0.738517 3.3444e-05 0.652581C-0.000840998 0.566644 0.0154403 0.481397 0.0479241 0.401832C0.0804079 0.322267 0.128441 0.249983 0.18921 0.189214C0.24998 0.128444 0.322264 0.0804103 0.401829 0.0479265C0.481394 0.0154427 0.566642 -0.000838375 0.652578 3.60825e-05C0.738515 0.00091054 0.823413 0.0189236 0.902301 0.0530197C0.981188 0.0871159 1.05248 0.13661 1.112 0.198603L5.49985 4.58646L9.88771 0.198603C9.94723 0.136609 10.0185 0.087115 10.0974 0.0530185C10.1763 0.018922 10.2612 0.000908258 10.3471 3.36185e-05C10.4331 -0.000841021 10.5183 0.0154415 10.5979 0.0479253C10.6774 0.0804091 10.7497 0.128442 10.8105 0.189211C10.8713 0.249981 10.9193 0.322265 10.9518 0.401831C10.9843 0.481396 11.0005 0.566644 10.9997 0.652581C10.9988 0.738517 10.9808 0.823417 10.9467 0.902305C10.9126 0.981193 10.8631 1.05248 10.8011 1.112L6.41325 5.49986L10.8011 9.88772C10.8951 9.97785 10.9597 10.0943 10.9863 10.2217C11.013 10.3492 11.0005 10.4818 10.9505 10.602C10.9005 10.7222 10.8153 10.8246 10.7062 10.8956C10.597 10.9666 10.4689 11.0029 10.3387 10.9998Z" fill="#373737"/>
</svg>
