<svg width="28" height="28" viewBox="0 0 28 28" fill="none" xmlns="http://www.w3.org/2000/svg">
<rect width="28" height="28" rx="4" fill="#FF4F38"/>
<rect x="7" y="8" width="2" height="12" rx="0.5" fill="white"/>
<path d="M4 10.5C4 10.2239 4.22386 10 4.5 10H6V18H4.5C4.22386 18 4 17.7761 4 17.5V10.5Z" fill="white"/>
<path d="M2 13.3C2 13.1343 2.13431 13 2.3 13H3V15H2.3C2.13431 15 2 14.8657 2 14.7V13.3Z" fill="white"/>
<rect x="21" y="20" width="2" height="12" rx="0.5" transform="rotate(180 21 20)" fill="white"/>
<path d="M24 17.5C24 17.7761 23.7761 18 23.5 18H22V10H23.5C23.7761 10 24 10.2239 24 10.5V17.5Z" fill="white"/>
<path d="M26 14.7C26 14.8657 25.8657 15 25.7 15H25V13H25.7C25.8657 13 26 13.1343 26 13.3V14.7Z" fill="white"/>
<rect x="10" y="13" width="8" height="2" fill="white"/>
</svg>
