<svg width="20" height="20" viewBox="0 0 20 20" fill="none" xmlns="http://www.w3.org/2000/svg">
<g clip-path="url(#clip0_625_1735)">
<path d="M9.98735 0.883271C7.03737 0.955556 4.62439 2.12225 2.78073 4.4417C2.48656 4.81137 2.26783 4.89316 2.02818 4.71689C1.77838 4.53301 1.78853 4.28065 2.10172 3.90274C4.8279 0.609985 8.31487 -0.694942 12.453 0.35572C16.5999 1.40892 19.1162 4.21407 19.8542 8.4332C20.8173 13.9452 16.8954 19.2226 11.3638 19.91C7.56803 20.3804 4.45321 19.0533 2.05227 16.063C1.79867 15.746 1.79043 15.4981 2.01486 15.3193C2.2393 15.1404 2.48402 15.2045 2.73001 15.5228C4.05062 17.231 5.75036 18.3628 7.84825 18.8834C12.9506 20.1395 18.0854 16.7833 18.9856 11.6036C19.2221 10.2891 19.1666 8.93865 18.823 7.64799C18.4794 6.35734 17.8563 5.15805 16.9977 4.13511C16.139 3.11216 15.066 2.2906 13.8545 1.72864C12.643 1.16668 11.3228 0.878072 9.98735 0.883271Z" fill="#2B4066"/>
<path d="M1.48926 10.4501C2.38699 11.3448 3.22767 12.1824 4.06772 13.0213C4.14564 13.091 4.21637 13.1683 4.27883 13.2521C4.34109 13.3325 4.37038 13.4336 4.36072 13.5348C4.35106 13.636 4.30318 13.7297 4.22685 13.7968C4.06581 13.9572 3.87435 13.9756 3.68288 13.8456C3.61405 13.7963 3.55033 13.7402 3.49268 13.6782C2.39967 12.5868 1.30646 11.4936 0.213026 10.3988C-0.0722712 10.1128 -0.0710032 9.90865 0.21683 9.62014C1.31575 8.51812 2.41679 7.41652 3.51994 6.31534C3.61694 6.21833 3.71458 6.11878 3.8585 6.09912C3.94727 6.08318 4.03882 6.09689 4.11902 6.13814C4.19923 6.17939 4.26363 6.2459 4.30229 6.32739C4.41324 6.54424 4.33843 6.73066 4.17549 6.89806C3.51149 7.55876 2.84918 8.22074 2.18855 8.88398C1.9749 9.09766 1.75871 9.30818 1.49116 9.57576H10.6327C10.7272 9.57099 10.8219 9.5729 10.9161 9.58146C11.1551 9.61697 11.3048 9.76344 11.3105 10.0006C11.3162 10.2542 11.1628 10.4083 10.9104 10.4444C10.816 10.453 10.7211 10.4549 10.6264 10.4501H1.48926Z" fill="#2B4066"/>
</g>
<defs>
<clipPath id="clip0_625_1735">
<rect width="20" height="20" fill="white"/>
</clipPath>
</defs>
</svg>
