<svg width="14" height="18" viewBox="0 0 14 18" fill="none" xmlns="http://www.w3.org/2000/svg">
<path d="M0 6.88643C0.027323 3.39658 2.37938 0.619998 5.74543 0.0861856C9.36345 -0.487001 12.8046 1.85345 13.471 5.4811C13.9264 7.96011 13.1591 10.0439 11.437 11.8233C11.1994 12.0686 10.9247 12.2723 10.6051 12.4055C10.1308 12.6031 9.69968 12.4812 9.48716 12.0898C9.28528 11.718 9.4014 11.2175 9.78164 10.9525C10.4025 10.5194 10.9049 9.98557 11.2859 9.33137C13.1242 6.17392 10.9922 2.04804 7.34458 1.71488C4.67831 1.47107 2.38469 3.06115 1.81622 5.66131C1.35249 7.78066 1.98851 9.56837 3.75843 10.8942C4.0772 11.1335 4.28744 11.4106 4.22141 11.8157C4.11971 12.4419 3.49128 12.6978 2.90383 12.3457C2.26705 11.9641 1.76385 11.4341 1.332 10.8344C0.45842 9.61985 0.0189743 8.26526 0 6.88643Z" fill="#2B4066"/>
<path d="M6.83685 13.5867C7.8349 13.5867 8.8337 13.5958 9.83175 13.5806C10.1004 13.5769 10.2067 13.6261 10.2014 13.9274C10.1862 14.7914 9.90993 15.1071 9.02041 15.1972C8.39198 15.2608 7.97455 15.6697 7.93812 16.3027C7.91155 16.7676 7.91535 17.2348 7.92673 17.7012C7.93205 17.9322 7.85767 18.0064 7.62314 17.9995C7.06758 17.9836 6.51125 17.9844 5.95568 17.9995C5.7462 18.0056 5.70294 17.9352 5.70977 17.7413C5.72419 17.3257 5.72495 16.9092 5.71129 16.4935C5.68473 15.6939 5.29461 15.2775 4.51894 15.1957C3.69166 15.1094 3.33571 14.6467 3.42071 13.8116C3.44727 13.5557 3.60362 13.5859 3.7668 13.5859C4.79066 13.5859 5.81375 13.5859 6.83761 13.5859L6.83685 13.5867Z" fill="#2B4066"/>
<ellipse cx="7.10108" cy="7.00564" rx="0.789009" ry="0.778402" fill="#2B4066"/>
<ellipse cx="9.46815" cy="6.22722" rx="0.789009" ry="0.778402" fill="#2B4066"/>
<ellipse cx="8.67915" cy="8.5624" rx="0.789009" ry="0.778402" fill="#2B4066"/>
</svg>
