<svg width="21" height="18" viewBox="0 0 21 18" fill="none" xmlns="http://www.w3.org/2000/svg">
<rect x="7" y="9.96539" width="10.8889" height="1.53314" rx="0.766568" fill="#2B4066"/>
<rect x="7" y="3.06628" width="10.8889" height="5.36597" rx="2" fill="#2B4066"/>
<rect x="7" y="12.2651" width="10.8889" height="1.53314" rx="0.766568" fill="#2B4066"/>
<path d="M20.9971 2.33328C20.9954 0.919585 20.0549 0.00377936 18.6056 0.00291945C14.5454 -0.0013801 10.4852 0.000339718 6.42496 0.000339718C6.10211 0.000339718 5.78189 0.026997 5.4757 0.128466C4.46328 0.464692 3.96234 1.20937 3.96146 2.38573C3.95883 6.46515 3.9597 10.5446 3.96234 14.624C3.96234 14.8837 3.94391 15.1382 3.88689 15.391C3.82986 15.643 3.69037 15.8287 3.45613 15.9543C2.69988 16.3601 1.94013 15.8992 1.93574 15.0101C1.92697 13.1346 1.93311 11.26 1.93311 9.38455C1.93311 7.39472 1.93135 5.40488 1.93398 3.41505C1.93486 2.99455 1.86205 2.61017 1.44269 2.39003C0.705745 2.00479 0.00477049 2.48118 0.00389317 3.37893C0.000383914 7.27261 -0.00312534 11.1663 0.00477049 15.06C0.00827974 16.7875 1.26372 17.9991 3.02361 18H17.351C19.3899 17.9991 20.9945 16.4418 20.9963 14.4434C21.0015 10.4061 21.0007 6.3697 20.9971 2.33328ZM19.0697 14.3256C19.0688 15.4332 18.3713 16.1202 17.2396 16.1211C13.5452 16.1237 9.84999 16.1194 6.15562 16.128C5.83453 16.1288 5.7117 16.0858 5.80645 15.729C5.88541 15.4297 5.88014 15.1047 5.88014 14.7917C5.88453 10.7406 5.88365 6.69045 5.88365 2.64027C5.88365 1.93944 5.94068 1.88355 6.65481 1.88355H18.3073C19.0153 1.88355 19.0697 1.93944 19.0697 2.64715V8.5298C19.0697 10.462 19.0714 12.3934 19.0697 14.3256Z" fill="#2B4066"/>
</svg>
