<svg width="28" height="28" viewBox="0 0 28 28" fill="none" xmlns="http://www.w3.org/2000/svg">
<rect width="28" height="28" rx="4" fill="#F645FA"/>
<path d="M7.0771 19.772L8.83544 21.5303L6.46545 23.9003C6.07492 24.2909 5.44176 24.2909 5.05123 23.9003L4.70711 23.5562C4.31658 23.1657 4.31658 22.5325 4.70711 22.142L7.0771 19.772Z" stroke="white" stroke-width="1.5"/>
<path d="M14.5 5.99999C14.5 5.99999 17 4.5 19.5 5.5C23.4879 7.09519 23.4605 12.8967 20.5507 16.056C18.1589 18.6528 14.3532 18.4657 13.0739 18.3167C12.7939 18.2841 12.5096 18.3504 12.2841 18.5195L10.8798 19.5727L9.12146 17.8144L10.1835 16.3983C10.3474 16.1797 10.4149 15.9046 10.3821 15.6333C10.2794 14.7847 10.1066 12.7828 10.4402 10.781" stroke="white" stroke-width="1.5"/>
<circle cx="12" cy="8" r="2" fill="white"/>
</svg>
