<svg width="20" height="20" viewBox="0 0 20 20" fill="none" xmlns="http://www.w3.org/2000/svg">
<g clip-path="url(#clip0_625_1730)">
<path d="M20 12.6179C19.8372 13.1315 19.485 13.4902 19.1254 13.8609C17.4672 15.571 15.8248 17.2983 14.1807 19.0225C14.0355 19.182 13.8496 19.2946 13.6449 19.3468C12.8839 19.5449 12.1265 19.7658 11.3703 19.9778C11.0058 20.0794 10.7483 19.8217 10.8479 19.4433C11.0648 18.6232 11.2937 17.8062 11.5094 16.9854C11.5549 16.8121 11.6582 16.6902 11.7712 16.5709C13.4901 14.7596 15.21 12.9497 16.9309 11.1414C17.3069 10.7485 17.7405 10.452 18.3109 10.459C19.1005 10.4685 19.7467 10.9884 19.9417 11.7921C19.9539 11.8397 19.9381 11.8993 20.0024 11.9228L20 12.6179ZM18.3601 13.4648C18.3303 13.4267 18.3072 13.3924 18.2793 13.3632C17.924 12.9899 17.5644 12.6211 17.2139 12.2434C17.107 12.1285 17.0627 12.2225 17.0032 12.2847C15.577 13.787 14.1503 15.2894 12.7229 16.7918C12.6124 16.9079 12.6069 16.972 12.7229 17.0863C13.0489 17.3999 13.367 17.7224 13.6771 18.0537C13.7986 18.1807 13.863 18.1807 13.9839 18.0537C15.3974 16.5683 16.8147 15.0861 18.2356 13.607C18.2775 13.5606 18.3163 13.5143 18.3607 13.4648H18.3601ZM19.1618 12.2752C19.1728 11.5959 18.5544 11.1547 17.9908 11.3966C17.7982 11.4797 17.7296 11.5477 17.9209 11.7292C18.2034 11.9958 18.4633 12.2891 18.7324 12.571C18.9723 12.8217 19.0507 12.8001 19.1375 12.4548C19.1501 12.3957 19.1584 12.3356 19.1624 12.2752H19.1618ZM12.9707 18.7006L12.1605 17.8119C12.0645 18.2131 11.9254 18.5927 11.8665 19.025L12.9707 18.7006Z" fill="#2B4066"/>
<path d="M4.17333 17.2228C5.44884 16.8165 6.28643 16.0027 6.84583 14.8549C6.91446 14.7147 6.9746 14.5699 7.0323 14.4239C7.22059 13.9453 7.23881 13.93 7.71561 13.93H13.0284L13.0673 14.0037C12.8316 14.2405 12.5917 14.4741 12.3615 14.7166C12.2589 14.8245 12.138 14.7959 12.0214 14.7959C10.6997 14.7959 9.37863 14.8023 8.05696 14.7915C7.85348 14.7915 7.76116 14.8594 7.67613 15.0492C6.7693 17.0742 5.24658 18.1534 3.10555 18.2714C2.86259 18.2848 2.62754 18.2714 2.53218 17.9839C2.43682 17.6963 2.60506 17.5395 2.81461 17.3954C3.65341 16.8241 3.89697 15.9785 3.83563 14.987C3.82409 14.801 3.72994 14.7965 3.59753 14.7965C3.15353 14.8004 2.70893 14.7826 2.26614 14.8004C0.850324 14.8543 -0.0139862 13.6907 -1.62877e-05 12.4313C0.038249 9.06684 0.0121314 5.70685 0.0133462 2.34432C0.0139536 0.895702 0.869153 0 2.25581 0C7.14973 0 12.0418 0 16.9321 0C18.3017 0 19.1606 0.896972 19.1618 2.32464C19.1618 4.69625 19.1618 7.06786 19.1618 9.43947C19.1618 9.63816 19.1667 9.7683 18.9103 9.66546C18.736 9.59563 18.4414 9.6553 18.3728 9.54294C18.275 9.38298 18.3303 9.11763 18.3303 8.89735C18.3303 6.72634 18.3303 4.5549 18.3303 2.38304C18.3303 1.37307 17.8444 0.859519 16.8853 0.859519H2.30137C1.32955 0.859519 0.843643 1.36228 0.843643 2.3659C0.843643 5.71849 0.843643 9.07065 0.843643 12.4224C0.843643 13.4114 1.3338 13.9243 2.27404 13.9256C2.84862 13.9256 3.42382 13.9256 3.99901 13.9256C4.4503 13.9256 4.55538 14.0316 4.61976 14.5033C4.7467 15.4364 4.67686 16.3315 4.17333 17.2228Z" fill="#2B4066"/>
</g>
<defs>
<clipPath id="clip0_625_1730">
<rect width="20" height="20" fill="white"/>
</clipPath>
</defs>
</svg>
