<svg width="20" height="20" viewBox="0 0 20 20" fill="none" xmlns="http://www.w3.org/2000/svg">
<g clip-path="url(#clip0_625_1740)">
<path d="M16.1477 19.9901C14.7927 19.9035 13.5665 19.4121 12.3957 18.7668C10.3097 17.617 8.5044 16.0972 6.80075 14.4519C4.85873 12.5768 3.04415 10.5914 1.62246 8.27975C0.870348 7.0572 0.273412 5.77125 0.0409763 4.33668C-0.0659968 3.65903 0.0257888 3.0679 0.501225 2.53093C1.23264 1.69338 2.06202 0.946749 2.97151 0.307096C3.73155 -0.221288 4.50347 -0.0555072 5.01192 0.703384C5.82148 1.91867 6.61124 3.14716 7.43334 4.35386C7.77473 4.8545 7.81369 5.35514 7.55418 5.87296C7.27024 6.44163 6.96913 7.0037 6.63567 7.54397C6.46134 7.82666 6.49106 8.0149 6.68651 8.26588C7.68493 9.54391 8.824 10.6885 9.9941 11.8047C10.5712 12.3637 11.1808 12.8879 11.8199 13.3747C12.0015 13.5107 12.1388 13.5332 12.3482 13.4064C12.8236 13.1125 13.3215 12.8556 13.8068 12.5775C14.4751 12.1951 15.1004 12.1654 15.77 12.6376C16.9275 13.4533 18.1247 14.2109 19.3041 14.9955C19.9967 15.4578 20.2173 16.1408 19.7782 16.8396C19.0518 18.0007 18.1406 19.0152 17.0048 19.8058C16.7446 19.9834 16.4534 20.0224 16.1477 19.9901ZM0.909307 3.92719C0.931098 4.09032 0.945625 4.25743 0.97534 4.41594C1.20447 5.65566 1.73472 6.77848 2.41287 7.82005C4.87325 11.598 8.00783 14.7287 11.7096 17.2841C12.8982 18.1044 14.1773 18.7596 15.6188 19.0225C15.9786 19.0885 16.3531 19.1777 16.6944 18.9135C17.5819 18.2272 18.3017 17.3851 18.9442 16.477C19.1535 16.1811 19.071 15.9374 18.7632 15.7326C17.6209 14.9731 16.464 14.2333 15.3408 13.446C14.9195 13.1508 14.5695 13.1818 14.1634 13.4176C13.5863 13.7558 12.9841 14.0523 12.4201 14.4083C12.1283 14.5946 11.9269 14.5629 11.6634 14.3753C10.5111 13.5576 9.4797 12.6026 8.48327 11.6086C7.43995 10.5677 6.43163 9.49503 5.58311 8.28173C5.42133 8.0499 5.38897 7.87091 5.55075 7.60936C5.93176 6.99445 6.27117 6.35445 6.62378 5.72171C6.8133 5.3809 6.83245 5.07312 6.5868 4.71646C5.80167 3.58109 5.05286 2.41799 4.29217 1.26479C4.05049 0.899547 3.79626 0.830857 3.44497 1.08382C2.60965 1.68288 1.83575 2.35062 1.18466 3.14716C1.00373 3.36842 0.83469 3.60751 0.909307 3.92719Z" fill="#2B4066"/>
</g>
<defs>
<clipPath id="clip0_625_1740">
<rect width="20" height="20" fill="white"/>
</clipPath>
</defs>
</svg>
