<svg width="28" height="28" viewBox="0 0 28 28" fill="none" xmlns="http://www.w3.org/2000/svg">
<rect width="28" height="28" rx="4" fill="#3F3FFF"/>
<path d="M3 18.4979C3 18.4979 6.54408 21.1434 9.35556 20.9939C11.8383 20.8619 14.7333 18.4979 14.7333 18.4979C14.7333 18.4979 17.294 16.0766 19.6222 16.0018C22.1091 15.922 25 18.4979 25 18.4979" stroke="white" stroke-width="1.5" stroke-linecap="round"/>
<circle cx="17.5" cy="10.5" r="2.5" fill="white"/>
<path d="M13 11.75L14.6937 14.0788C14.8608 14.3086 14.8031 14.6313 14.5666 14.7889L10.626 17.416C10.5438 17.4708 10.4473 17.5 10.3486 17.5H6.55235C6.06668 17.5 5.86616 16.8774 6.26053 16.594L13 11.75Z" fill="white"/>
<path d="M6.6819 6.77239C6.28006 6.67193 5.87285 6.91625 5.77239 7.3181C5.67193 7.71994 5.91625 8.12715 6.3181 8.22761L6.6819 6.77239ZM14.6937 14.0788L14.0871 14.5199L14.0871 14.5199L14.6937 14.0788ZM13 11.75L13.6066 11.3089L13.6006 11.3007L13.5945 11.2927L13 11.75ZM10.6061 8.63799L10.0117 9.09527L10.0117 9.09527L10.6061 8.63799ZM6.26053 16.594L5.82281 15.985L5.82281 15.985L6.26053 16.594ZM10.626 17.416L10.2099 16.792L10.2099 16.792L10.626 17.416ZM14.5666 14.7889L14.1506 14.1649L14.1506 14.1649L14.5666 14.7889ZM10.513 7.73017L6.6819 6.77239L6.3181 8.22761L10.1492 9.18538L10.513 7.73017ZM15.3002 13.6377L13.6066 11.3089L12.3934 12.1911L14.0871 14.5199L15.3002 13.6377ZM13.5945 11.2927L11.2006 8.18071L10.0117 9.09527L12.4055 12.2073L13.5945 11.2927ZM12.5623 11.141L5.82281 15.985L6.69826 17.203L13.4377 12.359L12.5623 11.141ZM6.55235 18.25H10.3486V16.75H6.55235V18.25ZM11.042 18.0401L14.9827 15.4129L14.1506 14.1649L10.2099 16.792L11.042 18.0401ZM5.82281 15.985C4.83689 16.6936 5.33818 18.25 6.55235 18.25V16.75C6.79519 16.75 6.89544 17.0613 6.69826 17.203L5.82281 15.985ZM10.1492 9.18538C10.0945 9.17171 10.0461 9.13996 10.0117 9.09527L11.2006 8.18071C11.0288 7.9573 10.7864 7.79853 10.513 7.73017L10.1492 9.18538ZM10.3486 18.25C10.5954 18.25 10.8367 18.177 11.042 18.0401L10.2099 16.792C10.251 16.7646 10.2993 16.75 10.3486 16.75V18.25ZM14.0871 14.5199C14.0036 14.405 14.0324 14.2437 14.1506 14.1649L14.9827 15.4129C15.5737 15.0189 15.718 14.2122 15.3002 13.6377L14.0871 14.5199Z" fill="white"/>
</svg>
