<svg width="15" height="18" viewBox="0 0 15 18" fill="none" xmlns="http://www.w3.org/2000/svg">
<path d="M3.78842 8.96124C3.80513 8.47681 4.15622 8.19667 4.75558 8.19517C5.67342 8.19291 6.59209 8.19441 7.50993 8.19441C8.42778 8.19441 9.34645 8.19216 10.2643 8.19517C10.8486 8.19742 11.2114 8.49409 11.2264 8.97251C11.2423 9.46595 10.8728 9.82496 10.2936 9.82796C8.44366 9.83773 6.59293 9.83773 4.74304 9.82872C4.11693 9.82571 3.77003 9.49074 3.78842 8.96124Z" fill="#2B4066"/>
<path d="M3.77838 5.91496C3.77838 5.39448 4.15371 5.09406 4.82663 5.0903C5.71688 5.08579 6.60714 5.0888 7.4974 5.0903C8.38765 5.0903 9.27791 5.08655 10.1682 5.0903C10.8545 5.09406 11.2206 5.38021 11.2273 5.9037C11.2331 6.41967 10.8193 6.74413 10.1372 6.74488C8.37093 6.74789 6.6038 6.74789 4.83749 6.74488C4.19216 6.74413 3.77838 6.41517 3.77838 5.91496Z" fill="#2B4066"/>
<path d="M11.2256 12.0226C11.259 12.4094 11.0492 12.7226 10.6647 12.8525C10.454 12.9238 10.2342 12.9434 10.0093 12.9426C9.16088 12.9396 8.31242 12.9411 7.46312 12.9404C6.58707 12.9404 5.71019 12.9524 4.83498 12.9366C4.09853 12.9231 3.72905 12.5761 3.79593 11.9918C3.83689 11.6305 4.05255 11.3909 4.45798 11.3181C4.63352 11.2865 4.81492 11.264 4.9938 11.264C6.64893 11.2595 8.30489 11.2595 9.96002 11.264C10.1531 11.264 10.3487 11.285 10.5385 11.3188C10.933 11.3887 11.1947 11.6658 11.2256 12.0226Z" fill="#2B4066"/>
<path d="M14.4289 0.0792471C13.9733 -0.101007 13.6297 0.0822513 13.2987 0.345873C12.9142 0.652304 12.5096 0.939208 12.1242 1.24564C11.9428 1.38984 11.8124 1.38308 11.6302 1.23287C11.2423 0.911419 10.8319 0.611747 10.4256 0.307569C9.90652 -0.0807282 9.53871 -0.0949983 9.01208 0.279028C8.5866 0.580203 8.17198 0.895647 7.7699 1.22161C7.57931 1.37557 7.44974 1.40111 7.24494 1.23212C6.84704 0.902406 6.42239 0.597477 6.00443 0.28729C5.4987 -0.0874877 5.09328 -0.0822303 4.58838 0.30156C4.1746 0.615502 3.7533 0.923436 3.35372 1.2524C3.16397 1.40862 3.03942 1.38008 2.86387 1.24038C2.41666 0.88363 1.96526 0.529882 1.49296 0.20167C1.02652 -0.123538 0.509918 -0.0454285 0.182236 0.363898C0.0183954 0.568186 0.00251289 0.801765 0.00251289 1.04285C0.00502065 3.69409 0.00418473 6.34532 0.00418473 8.9958C0.00418473 11.6463 0.00752842 14.2983 5.12213e-06 16.9488C-0.0008308 17.3671 0.100316 17.7321 0.54837 17.9199C0.980542 18.1016 1.34835 17.9544 1.68522 17.6765C2.05387 17.3731 2.46012 17.1065 2.82542 16.8C3.05196 16.6108 3.20493 16.6326 3.42143 16.8121C3.80847 17.1343 4.2189 17.4347 4.62934 17.7336C5.10665 18.0821 5.50706 18.0844 5.98354 17.7389C6.39481 17.4399 6.80943 17.1433 7.18893 16.8143C7.43052 16.6033 7.59519 16.6341 7.82006 16.8173C8.19956 17.129 8.59496 17.4257 8.99118 17.7201C9.48605 18.0866 9.92324 18.0814 10.4156 17.7096C10.8093 17.4122 11.208 17.1192 11.5859 16.8053C11.8024 16.6258 11.9545 16.6145 12.1811 16.8038C12.6091 17.1606 13.0529 17.5053 13.5194 17.8185C14.1237 18.2241 14.8844 17.9124 14.9781 17.2387C15.0006 17.0779 14.999 16.9142 14.999 16.752C15.0006 14.4635 14.9998 12.175 14.9998 9.88656C14.9998 6.93565 14.999 3.984 14.9998 1.03309C15.0006 0.620009 14.8953 0.263256 14.428 0.0792471H14.4289ZM13.1415 9.04312C13.1415 10.9944 13.1424 12.9449 13.1399 14.8961C13.139 15.0035 13.2059 15.1507 13.0939 15.2116C12.9359 15.2987 12.8548 15.1244 12.7595 15.0546C12.0114 14.5093 11.7531 14.5033 11.0233 15.0478C10.6814 15.3039 10.3287 15.5495 10.0068 15.8252C9.75772 16.0377 9.58803 16.0092 9.34979 15.8034C8.99035 15.4925 8.59245 15.2168 8.20374 14.9329C7.68296 14.5529 7.31599 14.5506 6.78518 14.9329C6.39564 15.2146 5.99942 15.4947 5.64582 15.8109C5.38084 16.0475 5.20195 16.0137 4.95451 15.8011C4.60343 15.4992 4.22476 15.2228 3.84859 14.9449C3.29939 14.5379 2.90734 14.5514 2.36399 14.9607C2.22272 15.0666 2.09065 15.3047 1.91176 15.2221C1.75377 15.1492 1.84656 14.9006 1.84572 14.7309C1.84238 10.9042 1.84321 7.07685 1.84321 3.25021C1.84321 3.15032 1.84238 3.05043 1.84572 2.94979C1.85157 2.78381 1.90507 2.69743 2.08814 2.83713C2.09901 2.84464 2.10987 2.85365 2.12074 2.86041C3.16982 3.52961 3.21078 3.52961 4.21807 2.78381C4.49727 2.57802 4.77814 2.37148 5.03978 2.14841C5.22786 1.98844 5.36997 1.98243 5.56725 2.1424C5.96932 2.46911 6.38896 2.77705 6.80608 3.08874C7.25915 3.42746 7.70135 3.43948 8.16195 3.10751C8.60666 2.78681 9.04134 2.45409 9.46515 2.11236C9.63484 1.97567 9.74769 1.97717 9.91655 2.11236C10.3312 2.44508 10.7575 2.76653 11.1888 3.08198C11.6979 3.45375 12.1401 3.43347 12.6408 3.04292C12.7729 2.94003 12.9025 2.72823 13.063 2.78531C13.241 2.8484 13.1374 3.07522 13.1374 3.22693C13.144 5.16541 13.1415 7.10389 13.1415 9.04237V9.04312Z" fill="#2B4066"/>
<path d="M3.78842 8.96124C3.80513 8.47681 4.15622 8.19667 4.75558 8.19517C5.67342 8.19291 6.59209 8.19441 7.50993 8.19441C8.42778 8.19441 9.34645 8.19216 10.2643 8.19517C10.8486 8.19742 11.2114 8.49409 11.2264 8.97251C11.2423 9.46595 10.8728 9.82496 10.2936 9.82796C8.44366 9.83773 6.59293 9.83773 4.74304 9.82872C4.11693 9.82571 3.77003 9.49074 3.78842 8.96124Z" fill="#2B4066"/>
<path d="M3.77838 5.91496C3.77838 5.39448 4.15371 5.09406 4.82663 5.0903C5.71688 5.08579 6.60714 5.0888 7.4974 5.0903C8.38765 5.0903 9.27791 5.08655 10.1682 5.0903C10.8545 5.09406 11.2206 5.38021 11.2273 5.9037C11.2331 6.41967 10.8193 6.74413 10.1372 6.74488C8.37093 6.74789 6.6038 6.74789 4.83749 6.74488C4.19216 6.74413 3.77838 6.41517 3.77838 5.91496Z" fill="#2B4066"/>
<path d="M10.6647 12.8525C10.454 12.9238 10.2342 12.9434 10.0093 12.9426C9.16088 12.9396 8.31242 12.9411 7.46312 12.9404C6.58707 12.9404 5.71019 12.9524 4.83498 12.9366C4.09853 12.9231 3.72905 12.5761 3.79593 11.9918C3.83689 11.6305 4.05255 11.3909 4.45798 11.3181C4.63352 11.2865 4.81492 11.264 4.9938 11.264C6.64893 11.2595 8.30489 11.2595 9.96002 11.264C10.1531 11.264 10.3487 11.285 10.5385 11.3188C10.933 11.3887 11.1947 11.6658 11.2256 12.0226C11.259 12.4094 11.0492 12.7226 10.6647 12.8525Z" fill="#2B4066"/>
<path d="M11.2273 5.9037C11.2331 6.41967 10.8193 6.74413 10.1372 6.74488C8.37093 6.74789 6.6038 6.74789 4.83749 6.74488C4.19216 6.74413 3.77838 6.41517 3.77838 5.91496C3.77838 5.41476 4.15371 5.09406 4.82663 5.0903C5.71688 5.08579 6.60714 5.0888 7.4974 5.0903C8.38765 5.0903 9.27791 5.08655 10.1682 5.0903C10.8545 5.09406 11.2206 5.38021 11.2273 5.9037Z" fill="#2B4066"/>
<path d="M11.2264 8.97251C11.2423 9.46595 10.8728 9.82496 10.2936 9.82796C8.44366 9.83773 6.59293 9.83773 4.74304 9.82872C4.11693 9.82571 3.77003 9.49074 3.78842 8.96124C3.80513 8.47681 4.15622 8.19667 4.75558 8.19517C5.67342 8.19291 6.59209 8.19441 7.50993 8.19441C8.42778 8.19441 9.34645 8.19216 10.2643 8.19517C10.8486 8.19742 11.2114 8.49409 11.2264 8.97251Z" fill="#2B4066"/>
<path d="M10.6647 12.8525C10.454 12.9238 10.2342 12.9434 10.0093 12.9426C9.16088 12.9396 8.31242 12.9411 7.46312 12.9404C6.58707 12.9404 5.71019 12.9524 4.83498 12.9366C4.09853 12.9231 3.72905 12.5761 3.79593 11.9918C3.83689 11.6305 4.05255 11.3909 4.45798 11.3181C4.63352 11.2865 4.81492 11.264 4.9938 11.264C6.64893 11.2595 8.30489 11.2595 9.96002 11.264C10.1531 11.264 10.3487 11.285 10.5385 11.3188C10.933 11.3887 11.1947 11.6658 11.2256 12.0226C11.259 12.4094 11.0492 12.7226 10.6647 12.8525Z" fill="#2B4066"/>
</svg>
